<?xml version="1.0" encoding="iso-8859-1"?>
<!-- Uploaded to: SVG Repo, www.svgrepo.com, Generator: SVG Repo Mixer Tools -->
<svg fill="#000000" version="1.1" id="Layer_1" xmlns="http://www.w3.org/2000/svg" xmlns:xlink="http://www.w3.org/1999/xlink" 
	 viewBox="0 0 512 512" xml:space="preserve">
<g>
	<g>
		<path d="M111.733,40.174c-18.115,0-34.834,6.066-48.253,16.259V15.61H47.87v56.484c-10.085,13.38-16.075,30.011-16.075,48.019
			v272.505c0,44.078,35.86,79.939,79.938,79.939c44.078,0,79.939-35.861,79.939-79.939V120.113
			C191.671,76.035,155.81,40.174,111.733,40.174z M176.062,392.618c0,35.471-28.857,64.329-64.329,64.329
			c-35.471,0-64.329-28.857-64.329-64.329V120.113c0-35.471,28.858-64.329,64.329-64.329c35.472,0,64.329,28.857,64.329,64.329
			V392.618z"/>
	</g>
</g>
<g>
	<g>
		<path d="M63.48,120.113V256h15.61V120.113c0-17.894,14.569-32.453,32.26-32.453V72.05C85.333,72.05,63.48,93.611,63.48,120.113z"
			/>
	</g>
</g>
<g>
	<g>
		<rect x="63.48" y="272.65" width="15.61" height="32.26"/>
	</g>
</g>
<g>
	<g>
		<rect x="63.48" y="320.52" width="15.61" height="15.61"/>
	</g>
</g>
<g>
	<g>
		<polygon points="199.805,96.78 199.805,112.39 496.39,112.39 496.39,480.78 15.61,480.78 15.61,112.39 23.935,112.39 
			23.935,96.78 0,96.78 0,496.39 512,496.39 512,96.78 		"/>
	</g>
</g>
<g>
	<g>
		<path d="M208.121,128.337v103.774h272.084V128.337H208.121z M464.595,216.501H223.73v-72.554h240.865V216.501z"/>
	</g>
</g>
<g>
	<g>
		<rect x="240.39" y="192.52" width="23.935" height="15.61"/>
	</g>
</g>
<g>
	<g>
		<rect x="271.61" y="192.52" width="24.976" height="15.61"/>
	</g>
</g>
<g>
	<g>
		<rect x="303.87" y="192.52" width="23.935" height="15.61"/>
	</g>
</g>
<g>
	<g>
		<path d="M239.971,248.56c-13.142,0-23.834,10.692-23.834,23.834s10.692,23.834,23.834,23.834
			c13.142,0,23.834-10.692,23.834-23.834C263.805,259.253,253.113,248.56,239.971,248.56z M239.971,280.62
			c-4.534,0-8.224-3.689-8.224-8.224s3.69-8.224,8.224-8.224s8.224,3.689,8.224,8.224C248.195,276.93,244.505,280.62,239.971,280.62
			z"/>
	</g>
</g>
<g>
	<g>
		<path d="M296.074,248.56c-13.142,0-23.834,10.692-23.834,23.834s10.692,23.834,23.834,23.834
			c13.142,0,23.834-10.692,23.834-23.834C319.908,259.253,309.217,248.56,296.074,248.56z M296.074,280.62
			c-4.534,0-8.224-3.689-8.224-8.224s3.69-8.224,8.224-8.224c4.534,0,8.224,3.689,8.224,8.224
			C304.299,276.93,300.609,280.62,296.074,280.62z"/>
	</g>
</g>
<g>
	<g>
		<path d="M352.178,248.56c-13.142,0-23.834,10.692-23.834,23.834s10.692,23.834,23.834,23.834
			c13.143,0,23.835-10.692,23.835-23.834C376.013,259.253,365.321,248.56,352.178,248.56z M352.178,280.62
			c-4.534,0-8.224-3.689-8.224-8.224s3.69-8.224,8.224-8.224c4.535,0,8.225,3.689,8.225,8.224
			C360.403,276.93,356.713,280.62,352.178,280.62z"/>
	</g>
</g>
<g>
	<g>
		<path d="M239.971,304.664c-13.142,0-23.834,10.692-23.834,23.835c0,13.142,10.692,23.834,23.834,23.834
			c13.142,0,23.834-10.692,23.834-23.834C263.805,315.357,253.113,304.664,239.971,304.664z M239.971,336.723
			c-4.534,0-8.224-3.689-8.224-8.224s3.69-8.225,8.224-8.225s8.224,3.689,8.224,8.225
			C248.195,333.034,244.505,336.723,239.971,336.723z"/>
	</g>
</g>
<g>
	<g>
		<path d="M296.074,304.664c-13.142,0-23.834,10.692-23.834,23.835c0,13.142,10.692,23.834,23.834,23.834
			c13.142,0,23.834-10.692,23.834-23.834C319.908,315.357,309.217,304.664,296.074,304.664z M296.074,336.723
			c-4.534,0-8.224-3.689-8.224-8.224s3.69-8.225,8.224-8.225c4.534,0,8.224,3.689,8.224,8.225
			C304.299,333.034,300.609,336.723,296.074,336.723z"/>
	</g>
</g>
<g>
	<g>
		<path d="M352.178,304.664c-13.142,0-23.834,10.692-23.834,23.835c0,13.142,10.692,23.834,23.834,23.834
			c13.143,0,23.835-10.692,23.835-23.834C376.013,315.357,365.321,304.664,352.178,304.664z M352.178,336.723
			c-4.534,0-8.224-3.689-8.224-8.224s3.69-8.225,8.224-8.225c4.535,0,8.225,3.689,8.225,8.225
			C360.403,333.034,356.713,336.723,352.178,336.723z"/>
	</g>
</g>
<g>
	<g>
		<path d="M239.971,360.768c-13.142,0-23.834,10.692-23.834,23.834c0,13.142,10.692,23.835,23.834,23.835
			c13.142,0,23.834-10.692,23.834-23.835C263.805,371.46,253.113,360.768,239.971,360.768z M239.971,392.828
			c-4.534,0-8.224-3.689-8.224-8.225c0-4.535,3.69-8.224,8.224-8.224s8.224,3.689,8.224,8.224
			C248.195,389.139,244.505,392.828,239.971,392.828z"/>
	</g>
</g>
<g>
	<g>
		<path d="M296.074,360.768c-13.142,0-23.834,10.692-23.834,23.834c0,13.142,10.692,23.835,23.834,23.835
			c13.142,0,23.834-10.692,23.834-23.835C319.908,371.46,309.217,360.768,296.074,360.768z M296.074,392.828
			c-4.534,0-8.224-3.689-8.224-8.225c0-4.535,3.69-8.224,8.224-8.224c4.534,0,8.224,3.689,8.224,8.224
			C304.299,389.139,300.609,392.828,296.074,392.828z"/>
	</g>
</g>
<g>
	<g>
		<path d="M352.178,360.768c-13.142,0-23.834,10.692-23.834,23.834c0,13.142,10.692,23.835,23.834,23.835
			c13.143,0,23.835-10.692,23.835-23.835C376.013,371.46,365.321,360.768,352.178,360.768z M352.178,392.828
			c-4.534,0-8.224-3.689-8.224-8.225c0-4.535,3.69-8.224,8.224-8.224c4.535,0,8.225,3.689,8.225,8.224
			C360.403,389.139,356.713,392.828,352.178,392.828z"/>
	</g>
</g>
<g>
	<g>
		<path d="M239.971,416.872c-13.142,0-23.834,10.692-23.834,23.835c0,13.142,10.692,23.834,23.834,23.834
			c13.142,0,23.834-10.692,23.834-23.834C263.805,427.564,253.113,416.872,239.971,416.872z M239.971,448.931
			c-4.534,0-8.224-3.689-8.224-8.224c0-4.535,3.69-8.225,8.224-8.225s8.224,3.689,8.224,8.225
			C248.195,445.242,244.505,448.931,239.971,448.931z"/>
	</g>
</g>
<g>
	<g>
		<path d="M296.074,416.872c-13.142,0-23.834,10.692-23.834,23.835c0,13.142,10.692,23.834,23.834,23.834
			c13.142,0,23.834-10.692,23.834-23.834C319.908,427.564,309.217,416.872,296.074,416.872z M296.074,448.931
			c-4.534,0-8.224-3.689-8.224-8.224c0-4.535,3.69-8.225,8.224-8.225c4.534,0,8.224,3.689,8.224,8.225
			C304.299,445.242,300.609,448.931,296.074,448.931z"/>
	</g>
</g>
<g>
	<g>
		<path d="M352.178,416.872c-13.142,0-23.834,10.692-23.834,23.835c0,13.142,10.692,23.834,23.834,23.834
			c13.143,0,23.835-10.692,23.835-23.834C376.013,427.564,365.321,416.872,352.178,416.872z M352.178,448.931
			c-4.534,0-8.224-3.689-8.224-8.224c0-4.535,3.69-8.225,8.224-8.225c4.535,0,8.225,3.689,8.225,8.225
			C360.403,445.242,356.713,448.931,352.178,448.931z"/>
	</g>
</g>
<g>
	<g>
		<path d="M480.205,248.56h-95.758v47.669h95.759V248.56H480.205z M464.596,280.62h-0.001h-64.538v-16.45h64.539V280.62z"/>
	</g>
</g>
<g>
	<g>
		<path d="M480.205,304.664h-95.758v47.669h95.759v-47.669H480.205z M464.596,336.723h-0.001h-64.538v-16.45h64.539V336.723z"/>
	</g>
</g>
<g>
	<g>
		<rect x="392.325" y="376.715" width="15.61" height="15.61"/>
	</g>
</g>
<g>
	<g>
		<rect x="416.26" y="376.715" width="15.61" height="15.61"/>
	</g>
</g>
<g>
	<g>
		<rect x="440.195" y="376.715" width="16.65" height="15.61"/>
	</g>
</g>
<g>
	<g>
		<rect x="464.13" y="376.715" width="16.65" height="15.61"/>
	</g>
</g>
<g>
	<g>
		<rect x="392.325" y="408.976" width="15.61" height="15.61"/>
	</g>
</g>
<g>
	<g>
		<rect x="416.26" y="408.976" width="15.61" height="15.61"/>
	</g>
</g>
<g>
	<g>
		<rect x="440.195" y="408.976" width="16.65" height="15.61"/>
	</g>
</g>
<g>
	<g>
		<rect x="464.13" y="408.976" width="16.65" height="15.61"/>
	</g>
</g>
<g>
	<g>
		<rect x="392.325" y="441.236" width="15.61" height="15.61"/>
	</g>
</g>
<g>
	<g>
		<rect x="416.26" y="441.236" width="15.61" height="15.61"/>
	</g>
</g>
<g>
	<g>
		<rect x="440.195" y="441.236" width="16.65" height="15.61"/>
	</g>
</g>
<g>
	<g>
		<rect x="464.13" y="441.236" width="16.65" height="15.61"/>
	</g>
</g>
<g>
	<g>
		<rect x="392.325" y="151.935" width="15.61" height="15.61"/>
	</g>
</g>
<g>
	<g>
		<rect x="416.26" y="151.935" width="15.61" height="15.61"/>
	</g>
</g>
<g>
	<g>
		<rect x="440.195" y="151.935" width="16.65" height="15.61"/>
	</g>
</g>
</svg>